<svg id="Calque_1" data-name="Calque 1" xmlns="http://www.w3.org/2000/svg" viewBox="0 0 203.86 91.46"><defs><style>.cls-1{fill:#3d69b1;}.cls-2{fill:#e6186e;}.cls-3{fill:#39b189;}</style></defs><path class="cls-1" d="M87.48,42.77V16.58h3.93a17.31,17.31,0,0,1,4.19.4,6.35,6.35,0,0,1,2.67,1.38A7.27,7.27,0,0,1,100,20.85a7.6,7.6,0,0,1,.66,3.06,6.18,6.18,0,0,1-2.16,4.76,6.34,6.34,0,0,1,3.29,2.5,7.38,7.38,0,0,1-1,9.29,7.07,7.07,0,0,1-2.93,1.82,17,17,0,0,1-4.46.49Zm4-15h1.24a4.55,4.55,0,0,0,3.23-1,3.77,3.77,0,0,0,1-2.88,3.6,3.6,0,0,0-1.05-2.8,4.4,4.4,0,0,0-3.06-1H91.43Zm0,11.24h2.44A6,6,0,0,0,97.81,38a3.63,3.63,0,0,0,1.32-2.88,3.69,3.69,0,0,0-1.27-2.85c-.82-.76-2.3-1.14-4.43-1.14h-2ZM123,36.41H111.81l-2.92,6.36h-4.26l13-27.84,12.5,27.84h-4.32Zm-1.61-3.72-3.89-8.9-4.07,8.9Zm12,10.08V16.58h3.93a17.31,17.31,0,0,1,4.19.4,6.35,6.35,0,0,1,2.67,1.38,7.11,7.11,0,0,1,1.74,2.49,7.45,7.45,0,0,1,.67,3.06,6.18,6.18,0,0,1-2.16,4.76,6.34,6.34,0,0,1,3.29,2.5,7.38,7.38,0,0,1-.95,9.29,7.07,7.07,0,0,1-2.93,1.82,17,17,0,0,1-4.46.49Zm3.95-15h1.24a4.55,4.55,0,0,0,3.23-1,3.81,3.81,0,0,0,1-2.88,3.6,3.6,0,0,0-1-2.8,4.4,4.4,0,0,0-3.06-1h-1.39Zm0,11.24h2.44A6,6,0,0,0,143.7,38,3.63,3.63,0,0,0,145,35.12a3.69,3.69,0,0,0-1.27-2.85c-.83-.76-2.3-1.14-4.43-1.14h-2Zm31.05-18.77H157.86v6.3h10.2V30.3h-10.2v8.76h10.51v3.71H153.91V16.58h14.46Zm9.14-3.71V39.06H181v3.71h-7.4V16.58Zm-71.06,34v4.52a10.63,10.63,0,0,0-6.85-2.77A8.72,8.72,0,0,0,93,55.1a9.45,9.45,0,0,0-2.69,6.82A9.23,9.23,0,0,0,93,68.64a8.86,8.86,0,0,0,6.59,2.74,8,8,0,0,0,3.43-.66,10.13,10.13,0,0,0,1.63-.88,18.21,18.21,0,0,0,1.78-1.35V73.1A13.76,13.76,0,0,1,99.56,75a12.71,12.71,0,0,1-9.26-3.78A12.56,12.56,0,0,1,86.48,62a13,13,0,0,1,3.2-8.63,12.72,12.72,0,0,1,10.18-4.64,12.89,12.89,0,0,1,6.59,1.86m4.39,11.18a12.41,12.41,0,0,1,3.92-9.18,12.91,12.91,0,0,1,9.38-3.84,13.25,13.25,0,0,1,13.17,13.17,12.43,12.43,0,0,1-3.9,9.26,13.39,13.39,0,0,1-18.27.43,12.45,12.45,0,0,1-4.3-9.84m3.86.05a9.14,9.14,0,0,0,2.82,6.9,9.33,9.33,0,0,0,13.2,0,9.81,9.81,0,0,0,0-13.57,9.43,9.43,0,0,0-13.33,0,9.13,9.13,0,0,0-2.72,6.72m26.15-.05a12.41,12.41,0,0,1,3.92-9.18,12.89,12.89,0,0,1,9.38-3.84,13.25,13.25,0,0,1,13.17,13.17,12.43,12.43,0,0,1-3.9,9.26,13.39,13.39,0,0,1-18.27.43,12.42,12.42,0,0,1-4.3-9.84m3.86.05a9.14,9.14,0,0,0,2.82,6.9,9.33,9.33,0,0,0,13.2,0,9.81,9.81,0,0,0,0-13.57,9.43,9.43,0,0,0-13.33,0,9.09,9.09,0,0,0-2.72,6.72m32.23,2.44V74.49h-3.82V49.18h4.33a19.36,19.36,0,0,1,4.81.44,6.38,6.38,0,0,1,2.88,1.67,7.19,7.19,0,0,1,2.18,5.38A7,7,0,0,1,185,62.18a9.21,9.21,0,0,1-6.28,2Zm0-3.54h1.43q5.26,0,5.26-4.05c0-2.61-1.8-3.92-5.42-3.92h-1.27Z"/><circle class="cls-2" cx="184.9" cy="40.91" r="1.82"/><path class="cls-2" d="M56.07,18.71a21.4,21.4,0,0,0-21.66,36.9c.37.23.75.46,1.14.67a21.24,21.24,0,0,0,4.85,1.93l-.6-5.91a16.46,16.46,0,0,1-1.65-.78A16,16,0,1,1,53.47,23.47a15.9,15.9,0,0,1,6.61,6.87,24.9,24.9,0,0,1,6.56,2.32A21.35,21.35,0,0,0,56.07,18.71Z"/><path class="cls-3" d="M57.47,48.28l-4.89,3.37c.09,1.15.11,1.21.11,1.83a15.76,15.76,0,0,1-.52,4.09,16,16,0,0,1-31.44-4,15.78,15.78,0,0,1,2.69-8.86,18.76,18.76,0,0,1-1.26-6.85A21.4,21.4,0,1,0,58.08,54.79c0-.44,0-.88,0-1.33A22.14,22.14,0,0,0,57.47,48.28Z"/><path class="cls-1" d="M74.43,43a21.43,21.43,0,0,0-28-8.71c-.39.19-.79.39-1.17.61a21.53,21.53,0,0,0-4.2,3.1l5.33,2.61c1-.64,1-.68,1.54-1a16.48,16.48,0,0,1,3.82-1.55,16,16,0,1,1,2.32,31.34,32,32,0,0,1-5.41,4.29A21.39,21.39,0,0,0,74.43,43Z"/></svg>